<svg xmlns="http://www.w3.org/2000/svg" viewBox="0 0 370.42 163" class="iconAbove"><path d="m50.382 162.485-6.184-14.027h-29.77l-6.184 14.027H0l25.363-56.107h7.958l25.477 56.107h-8.416Zm-33.15-20.44h24.161l-12.08-27.48-12.08 27.48ZM98.417 103h7.672v59.485h-7.386v-6.699q-2.519 3.493-6.47 5.325Q88.283 163 83.589 163q-6.183 0-11.05-2.748-4.924-2.748-7.672-7.672-2.748-4.924-2.748-11.336t2.748-11.278q2.748-4.924 7.672-7.615 4.867-2.748 11.05-2.748 4.58 0 8.416 1.718 3.836 1.717 6.412 5.095V103Zm-14.198 53.244q4.007 0 7.27-1.889 3.321-1.89 5.153-5.267 1.832-3.435 1.832-7.844 0-4.408-1.832-7.786-1.832-3.435-5.152-5.267-3.264-1.832-7.271-1.832-4.065 0-7.329 1.832-3.263 1.832-5.152 5.267-1.89 3.378-1.89 7.786 0 4.409 1.89 7.844 1.889 3.378 5.152 5.267 3.264 1.89 7.329 1.89Zm96.927-22.843q4.866 1.374 7.672 4.923 2.805 3.55 2.805 9.046 0 7.271-5.496 11.222-5.496 3.893-15.973 3.893h-26.794v-56.107h25.19q9.619 0 14.829 3.836 5.267 3.893 5.267 10.706 0 4.408-2.061 7.614-2.004 3.206-5.439 4.867Zm-13.34-20.496h-16.431v17.92h16.431q6.184 0 9.504-2.29 3.32-2.29 3.32-6.7 0-4.408-3.32-6.64-3.32-2.29-9.504-2.29Zm2.004 43.11q6.813 0 10.248-2.233 3.493-2.29 3.493-7.099 0-9.332-13.74-9.332h-18.436v18.664h18.435Zm71.508-14.542q0 .916-.172 2.348h-34.466q.745 5.61 4.924 9.045 4.237 3.378 10.477 3.378 7.615 0 12.252-5.152l4.237 4.98q-2.863 3.378-7.157 5.153-4.294 1.775-9.56 1.775-6.757 0-11.967-2.805-5.21-2.748-8.072-7.73-2.805-4.98-2.805-11.22 0-6.184 2.748-11.108 2.748-4.98 7.614-7.786 4.867-2.748 10.935-2.748 6.126 0 10.878 2.748 4.752 2.805 7.443 7.786 2.69 4.924 2.69 11.336Zm-21.012-15.343q-5.496 0-9.274 3.32-3.722 3.378-4.352 8.817h27.252q-.63-5.324-4.35-8.76-3.722-3.377-9.276-3.377Zm47.119-6.527q8.816 0 13.511 4.351 4.695 4.294 4.695 12.882v25.649h-7.271v-5.611q-1.947 2.977-5.496 4.523-3.55 1.603-8.474 1.603-7.099 0-11.393-3.492-4.294-3.435-4.294-9.046 0-5.61 4.065-8.989 4.122-3.435 12.996-3.435h12.195v-1.488q0-4.981-2.92-7.615-2.862-2.69-8.473-2.69-3.779 0-7.386 1.259-3.606 1.26-6.068 3.32l-3.206-5.782q3.263-2.634 7.843-4.008 4.58-1.43 9.676-1.43Zm-1.718 37.443q4.408 0 7.615-1.947 3.206-2.004 4.637-5.61v-5.897h-11.851q-9.79 0-9.79 6.584 0 3.206 2.462 5.038 2.519 1.832 6.927 1.832Zm87.366-37.443q8.016 0 12.653 4.637 4.695 4.695 4.695 13.798v24.447h-7.672v-23.53q0-6.184-2.863-9.333-2.805-3.091-8.13-3.091-5.839 0-9.274 3.606-3.435 3.665-3.435 10.478v21.87h-7.73v-23.53q0-6.184-2.862-9.333-2.805-3.091-8.13-3.091-5.84 0-9.274 3.606-3.436 3.665-3.436 10.478v21.87h-7.729v-42.481h7.386v6.355q2.347-3.32 6.126-5.038 3.721-1.718 8.53-1.718 4.981 0 8.817 2.004 3.893 2.004 5.954 5.84 2.405-3.665 6.699-5.726 4.294-2.118 9.675-2.118Z" fill="#fff"/><g fill="#fff"><path d="m224.32 2.813-8.716 8.92h-63.202V78.27h63.202l8.716 8.918h-80.507V2.814h80.507M231 0h-90v90h90l-14.214-14.546h-61.572V14.546h61.574L231 0z"/><path d="M200.17 30.83v28.34h-28.34V30.83h28.34m2.812-2.812h-33.964v33.964h33.964V28.018z"/></g></svg>